<svg xmlns="http://www.w3.org/2000/svg" version="1.1" xmlns:xlink="http://www.w3.org/1999/xlink" xmlns:svgjs="http://svgjs.dev/svgjs" viewBox="0 0 800 800"><defs><filter id="ssspot-filter" x="-20%" y="-20%" width="140%" height="140%" filterUnits="objectBoundingBox" primitiveUnits="userSpaceOnUse" color-interpolation-filters="sRGB">
	<feTurbulence type="turbulence" baseFrequency="0.022 0.218" numOctaves="2" seed="307" stitchTiles="stitch" x="0%" y="0%" width="100%" height="100%" result="turbulence"></feTurbulence>
	<feGaussianBlur stdDeviation="0 3" x="0%" y="0%" width="100%" height="100%" in="turbulence" edgeMode="duplicate" result="blur"></feGaussianBlur>
	<feDisplacementMap in="SourceGraphic" in2="blur" scale="32" xChannelSelector="R" yChannelSelector="B" x="0%" y="0%" width="100%" height="100%" result="displacementMap"></feDisplacementMap>
</filter></defs><rect width="100%" height="100%" fill="hsl(32, 0%, 0%)"></rect><g fill="hsl(32, 0%, 100%)" filter="url(#ssspot-filter)"><circle r="7.317117073352678" cx="706.9953414072678" cy="16.997731093274194" opacity="0.9228735574526892"></circle><circle r="4.102200238531029" cx="640.3861489659573" cy="13.779592166841743" opacity="0.17186767528358415"></circle><circle r="4.511638537433934" cx="599.2405494415129" cy="556.3758283918198" opacity="0.8649763237047317"></circle><circle r="5.857585832244729" cx="589.3344924881839" cy="213.35480492939232" opacity="0.4450995623740912"></circle><circle r="6.447786211999215" cx="135.5230052957704" cy="91.19039137312173" opacity="0.782769389230031"></circle><circle r="4.494460026893745" cx="396.9233876050203" cy="53.83495473941805" opacity="0.43250688264959447"></circle><circle r="3.6380591049729376" cx="550.3114391268604" cy="215.83838722657464" opacity="0.9607552613389536"></circle><circle r="6.042366067822314" cx="128.25048789072295" cy="437.80249282390565" opacity="0.3833404504642275"></circle><circle r="4.902374532440952" cx="450.1858715276776" cy="133.98622897601544" opacity="0.31795636997824206"></circle><circle r="4.785207478731111" cx="201.8365058301771" cy="775.8713764695334" opacity="0.7976262000753507"></circle><circle r="3.5099458513728337" cx="77.46274617778097" cy="497.1442790157927" opacity="0.6806919095820919"></circle><circle r="3.827676619901875" cx="358.0429727956984" cy="526.3012510276059" opacity="0.7117301835215694"></circle><circle r="4.482989407574586" cx="132.9147889874952" cy="146.74852089537143" opacity="0.8872680634426265"></circle><circle r="4.0960353955301" cx="187.89014170551485" cy="467.5771279716251" opacity="0.934701861174272"></circle><circle r="2.905893942837869" cx="712.7923256424873" cy="145.57364031643195" opacity="0.550569531479179"></circle><circle r="4.478678639437272" cx="238.48315225571372" cy="525.0152809675106" opacity="0.5025474946411946"></circle><circle r="5.4000711296721295" cx="463.5220056014274" cy="288.5917875521557" opacity="0.8388153447472874"></circle><circle r="5.356637820868272" cx="630.9616278763672" cy="764.3824809904626" opacity="0.26806983780742577"></circle><circle r="5.77290903276837" cx="593.5102989751341" cy="413.1095419258733" opacity="0.8459729165017367"></circle><circle r="5.439264632537005" cx="295.38837011833544" cy="779.0346893158352" opacity="0.4765239229502398"></circle><circle r="3.8364363706908824" cx="74.38735478076258" cy="11.529681328245303" opacity="0.14704317648058626"></circle><circle r="4.607015648781249" cx="409.4018548085363" cy="337.6740143519847" opacity="0.10823284326835707"></circle><circle r="5.157918888595794" cx="421.21664537019956" cy="762.4863661339484" opacity="0.32749971978598635"></circle><circle r="8.669297772617439" cx="639.4873893353241" cy="380.53042416614164" opacity="0.9444037168541063"></circle><circle r="8.810503810235666" cx="467.6087981505918" cy="39.43078307232697" opacity="0.23054932776692993"></circle><circle r="5.979100581256313" cx="556.5394878582874" cy="526.7775395921552" opacity="0.20019817005462268"></circle><circle r="8.260294883462212" cx="449.5005199681724" cy="743.8111432786613" opacity="0.20129224020109637"></circle><circle r="7.218725087071664" cx="253.0364534674435" cy="635.6201626201752" opacity="0.6585141817523542"></circle><circle r="3.899389075038364" cx="118.0866886118373" cy="631.7418824844835" opacity="0.818198212004193"></circle><circle r="7.48133543635124" cx="530.1088933364725" cy="338.7584849740661" opacity="0.5108057727851526"></circle><circle r="7.144676584496726" cx="436.92203824809644" cy="485.66595018953916" opacity="0.9667348328916558"></circle><circle r="6.031435022606514" cx="624.0977126521014" cy="619.1689348195046" opacity="0.47910286568882765"></circle><circle r="3.611982417202518" cx="147.78236212021812" cy="601.2915762060121" opacity="0.8441710313011538"></circle><circle r="7.734191345503291" cx="386.1246807971394" cy="502.9969650610421" opacity="0.766419806270537"></circle><circle r="4.494519968808629" cx="44.541189069357465" cy="13.954129073207726" opacity="0.9261698534380298"></circle><circle r="5.53252878492591" cx="485.3763697085192" cy="782.1744982277779" opacity="0.5849025222060543"></circle><circle r="4.455886213081505" cx="525.0373212672775" cy="737.360948268682" opacity="0.3723285024657772"></circle><circle r="6.244489042681297" cx="636.0317976914698" cy="424.5119776106812" opacity="0.559670310880613"></circle><circle r="7.938686018378085" cx="772.812907761869" cy="391.05286642996015" opacity="0.2666520821183468"></circle><circle r="6.631775836277107" cx="426.99795134900523" cy="16.65691693424728" opacity="0.7574929731449926"></circle><circle r="4.693132819201954" cx="655.19904827583" cy="788.5682179813887" opacity="0.9793177668334541"></circle><circle r="4.723086942568125" cx="402.2158081725541" cy="114.39638904190396" opacity="0.3688194107885837"></circle><circle r="3.352665108858136" cx="560.218687511043" cy="703.4447664118483" opacity="0.15188968082716459"></circle><circle r="3.8650196681047593" cx="532.1326038336458" cy="719.9209145688063" opacity="0.231247500838531"></circle><circle r="6.497591143023197" cx="76.39132419840854" cy="682.1259705273508" opacity="0.7880870490874587"></circle><circle r="6.686620355775201" cx="547.3555946733734" cy="497.7806566922186" opacity="0.9361050976313917"></circle><circle r="4.368846797735045" cx="33.74163010549128" cy="198.87123633325794" opacity="0.9642708783136434"></circle><circle r="7.34024766229554" cx="251.1528219453331" cy="267.44980894197846" opacity="0.8417025840620493"></circle><circle r="6.209735433551974" cx="688.273216742593" cy="419.0386528729441" opacity="0.3307305891243598"></circle><circle r="5.4661148100986" cx="54.87102287824578" cy="120.21772720829638" opacity="0.37250572605788845"></circle><circle r="7.540628725928041" cx="63.88878853416083" cy="223.88259273221493" opacity="0.5804024176875837"></circle><circle r="6.010466274651254" cx="747.7989712160058" cy="108.81306521713559" opacity="0.8103180965278918"></circle><circle r="4.0751685853978685" cx="538.7888517365872" cy="382.164682661746" opacity="0.8563470153288365"></circle><circle r="4.93180609856913" cx="133.73797805107407" cy="783.1168106523345" opacity="0.3765824296771402"></circle><circle r="5.074262643520999" cx="448.6377559295147" cy="379.4725854839108" opacity="0.7433788290795094"></circle><circle r="5.269659337863422" cx="235.9070845176762" cy="194.27949371867805" opacity="0.38022171249121217"></circle><circle r="5.365553534448242" cx="266.87049989179707" cy="335.12545694720615" opacity="0.60633401984648"></circle><circle r="5.2321269654798765" cx="401.25736158304915" cy="742.7949711625386" opacity="0.5486142307402284"></circle><circle r="5.9809517227905005" cx="633.3249951838153" cy="311.20287611909146" opacity="0.283313076484898"></circle><circle r="8.57979381150679" cx="675.5824967552445" cy="657.2494882203473" opacity="0.5617992839724896"></circle><circle r="4.829986461621605" cx="710.0974778917923" cy="120.77840685881218" opacity="0.903374890393509"></circle><circle r="5.456685989453398" cx="739.7700620686301" cy="17.87906242441934" opacity="0.13021725660460606"></circle><circle r="5.009806223554434" cx="382.6014023601174" cy="536.8908307540838" opacity="0.29144459873085227"></circle><circle r="4.977094895702816" cx="445.6298567524406" cy="627.437519386321" opacity="0.17055234481293963"></circle><circle r="3.1587924893478503" cx="425.18055515899374" cy="321.719477047436" opacity="0.510053781524229"></circle><circle r="4.678749299390317" cx="680.3869272317698" cy="687.3465933189253" opacity="0.47857226694873845"></circle><circle r="3.280136222859725" cx="644.9412344972822" cy="258.90008085725486" opacity="0.47784341938945896"></circle><circle r="6.613831600485888" cx="521.4577310599886" cy="117.28243656903987" opacity="0.14636166783084473"></circle><circle r="8.261343928161484" cx="330.7671359861232" cy="776.7342731463518" opacity="0.8226075520240884"></circle><circle r="5.115242790334428" cx="60.54312726351606" cy="52.124515266949665" opacity="0.7072028824694268"></circle><circle r="6.78582622433103" cx="675.7679511854129" cy="111.88199546578353" opacity="0.7719669423917389"></circle><circle r="5.306290603735084" cx="214.52479144685714" cy="405.35693745736023" opacity="0.7121795048420178"></circle><circle r="3.4395512160625126" cx="137.44343209198425" cy="351.9525161918474" opacity="0.8819647292486565"></circle><circle r="3.5388968286112097" cx="376.6518379453031" cy="159.00442352948974" opacity="0.6677579779823738"></circle><circle r="7.842303750805208" cx="542.1586687616575" cy="276.8245355639947" opacity="0.33646838023452386"></circle><circle r="6.573734667617616" cx="94.06575370480486" cy="308.37871515683713" opacity="0.9950835462821401"></circle><circle r="4.320881229135596" cx="274.9171961654832" cy="14.58679030366039" opacity="0.7079959289068785"></circle><circle r="5.951075607180225" cx="144.0581793897113" cy="44.24854762277327" opacity="0.16009274111831084"></circle><circle r="7.019239082956974" cx="111.1601476959233" cy="177.22998689575834" opacity="0.3177626888872018"></circle><circle r="6.921817975142487" cx="134.13303765800563" cy="256.46227666272443" opacity="0.7815728266773831"></circle><circle r="6.500571267713289" cx="766.1913558997364" cy="23.65908204927698" opacity="0.3113725210047923"></circle><circle r="6.362932035368587" cx="461.7535774839495" cy="705.6985197661932" opacity="0.4403313100792777"></circle><circle r="4.324821837972943" cx="689.7421285633668" cy="195.5401251869042" opacity="0.20919238976906493"></circle><circle r="6.398203370275316" cx="430.33341685397613" cy="584.7765424973113" opacity="0.14820737377184512"></circle><circle r="7.820555016882471" cx="243.0444787194032" cy="71.65366163162454" opacity="0.5794002042332834"></circle><circle r="4.351057560736361" cx="562.6092887565774" cy="239.18435783676773" opacity="0.4737972195788931"></circle><circle r="6.217020034589759" cx="49.68833563476305" cy="548.6528980817269" opacity="0.3852151648040131"></circle><circle r="4.518557523540136" cx="509.0248455278853" cy="243.6010343360494" opacity="0.9028933705454321"></circle><circle r="3.7244578970073428" cx="409.64071493806534" cy="363.7522395550944" opacity="0.5360721700686631"></circle><circle r="4.800216672883368" cx="114.2727046007095" cy="657.5837965422791" opacity="0.7546459098414962"></circle><circle r="6.397946553295032" cx="365.12449121663684" cy="685.5447533907706" opacity="0.6393395833572297"></circle><circle r="6.4493622685505905" cx="417.45384268667004" cy="510.2203173314377" opacity="0.5588044715229186"></circle><circle r="5.295228809032998" cx="516.331856987298" cy="398.7422751882503" opacity="0.33384358927825314"></circle><circle r="5.250234713927799" cx="662.2459877661555" cy="528.460316146519" opacity="0.6617870173037179"></circle><circle r="5.019608322032946" cx="232.2472726681608" cy="616.2921763163592" opacity="0.7987790534562302"></circle><circle r="5.63194238871303" cx="741.8293393830552" cy="272.4091714536262" opacity="0.4511604357268604"></circle><circle r="5.748210624268056" cx="501.76531295694633" cy="560.164434819616" opacity="0.9427682799320019"></circle><circle r="4.7055052052684365" cx="605.6176380209715" cy="509.7387223181914" opacity="0.9752617624316896"></circle><circle r="4.9150261979568395" cx="723.0051847929692" cy="782.6676675729066" opacity="0.37360964787445694"></circle><circle r="6.972646971871185" cx="678.9369400824801" cy="231.19184100543717" opacity="0.7630385242772508"></circle><circle r="5.555750753407443" cx="620.0168240618418" cy="275.8097328024713" opacity="0.9769511005655633"></circle><circle r="4.481890475328724" cx="13.506329399861396" cy="15.854875280010537" opacity="0.8259444962831063"></circle><circle r="7.567347988995934" cx="18.143264502111485" cy="711.0150395481754" opacity="0.39838511483842665"></circle><circle r="6.380911053633212" cx="560.8470472858845" cy="307.55341212760396" opacity="0.46233294769627775"></circle><circle r="5.394771890805304" cx="189.55257506224208" cy="188.66407472857932" opacity="0.7766633247273772"></circle><circle r="5.991264048113609" cx="526.8258965105455" cy="664.1739901574309" opacity="0.43549047915841843"></circle><circle r="8.663919866801699" cx="747.6245164877037" cy="226.86193248765295" opacity="0.2697339308348134"></circle><circle r="3.7689085050343474" cx="62.09943116971403" cy="576.1589086841934" opacity="0.26321842315822747"></circle><circle r="3.0909676755340736" cx="679.4866852950678" cy="54.06462009511431" opacity="0.4863870135054902"></circle><circle r="4.280310459749153" cx="790.0434547044108" cy="30.623113374612746" opacity="0.8007249694161123"></circle><circle r="6.455033047036028" cx="227.24219224645014" cy="38.78952345431854" opacity="0.911217103703303"></circle><circle r="5.5691154113405315" cx="641.8009133197592" cy="47.215385109492225" opacity="0.5938170512476915"></circle><circle r="5.923154857193742" cx="518.1396149154409" cy="430.4940786836025" opacity="0.8043230400768954"></circle><circle r="3.23661032816697" cx="209.7075549733262" cy="9.03076262065937" opacity="0.7155910971155696"></circle><circle r="3.4562237785360335" cx="601.3452262468032" cy="633.1476560087083" opacity="0.9171540165471997"></circle><circle r="5.714845580270778" cx="359.2776275715805" cy="291.1568940342092" opacity="0.4467365089374489"></circle><circle r="5.305975343418907" cx="558.2515794951212" cy="190.9870765649069" opacity="0.9385571596212664"></circle><circle r="5.390882448610396" cx="268.23365726254127" cy="527.2822379184371" opacity="0.416567313390775"></circle><circle r="6.0601058698897665" cx="152.725093260053" cy="534.6450986497417" opacity="0.3338489512403461"></circle><circle r="5.906534421921736" cx="394.81199997935386" cy="664.8714297167434" opacity="0.9736947926846381"></circle><circle r="5.87230871059386" cx="89.35800174583089" cy="570.0051283224008" opacity="0.12118018537403205"></circle><circle r="7.442468375918833" cx="420.3186841816398" cy="91.72421339052495" opacity="0.48987828182147564"></circle><circle r="5.160161335308277" cx="645.4517142692123" cy="208.2700938782572" opacity="0.7336756975444416"></circle><circle r="5.825052457718487" cx="535.4898786820228" cy="240.03996361184" opacity="0.8136616432422783"></circle><circle r="5.041707809414359" cx="702.1637041390941" cy="703.8853235305262" opacity="0.4076875420653089"></circle><circle r="4.781412352664427" cx="204.56246753793488" cy="215.77034556989202" opacity="0.9506497396574674"></circle><circle r="3.9999705359771154" cx="618.152820508721" cy="48.856686018405824" opacity="0.5085294363761893"></circle><circle r="7.08953792736753" cx="256.01702793957463" cy="224.3757263466845" opacity="0.23668299686829572"></circle><circle r="5.71510966450637" cx="610.028118299128" cy="485.8733608820759" opacity="0.9555804269528383"></circle><circle r="5.751010521551489" cx="565.7872828737673" cy="334.51254578682943" opacity="0.5570066962618422"></circle><circle r="7.111574887032393" cx="25.43490433221887" cy="335.55068666931743" opacity="0.7848243494482211"></circle><circle r="5.189657105991607" cx="168.39671464415224" cy="205.13620519066933" opacity="0.1384871526649894"></circle><circle r="4.733936639165919" cx="789.0029437678606" cy="156.35051880996457" opacity="0.7113697685803836"></circle><circle r="6.670434958659895" cx="287.98584269383593" cy="145.2547139716097" opacity="0.9972758712336378"></circle><circle r="6.081100467641264" cx="292.9023279385286" cy="354.46873204311316" opacity="0.9215189116105338"></circle><circle r="6.357234255522298" cx="671.0028434642556" cy="457.58299194620366" opacity="0.8317992744896843"></circle><circle r="5.362760361667016" cx="613.8876278837333" cy="532.8458242285575" opacity="0.410294190147639"></circle><circle r="4.675674930144388" cx="485.3627396191321" cy="200.495937205254" opacity="0.3232183420808735"></circle><circle r="7.926829043765955" cx="739.3440307495531" cy="349.158614035568" opacity="0.15549600923183587"></circle><circle r="3.369600175764503" cx="583.3265179599473" cy="534.111022398688" opacity="0.696544098333433"></circle><circle r="9.88326829509505" cx="337.2073365032494" cy="652.7436577865124" opacity="0.5756898822671099"></circle><circle r="6.2354197187483225" cx="533.3186812812855" cy="632.0245621175159" opacity="0.8804131365618206"></circle><circle r="7.584437239262654" cx="490.9377038837765" cy="94.08970949183421" opacity="0.7906178789559003"></circle><circle r="7.454534039934968" cx="606.8088629821284" cy="148.90529988137922" opacity="0.3953125887905452"></circle><circle r="3.1665455542913246" cx="580.0031470457717" cy="360.67394744958335" opacity="0.23608173775881722"></circle><circle r="5.556071857518253" cx="578.8342542408759" cy="689.3155516782818" opacity="0.7119405906931494"></circle><circle r="3.52034576786901" cx="90.88561427355353" cy="656.8994872686656" opacity="0.32193170593213394"></circle><circle r="7.171718300887235" cx="114.41082434861751" cy="690.1484225933514" opacity="0.5310503374257454"></circle><circle r="5.340518194067837" cx="320.57169721266007" cy="470.08621420011383" opacity="0.11629661614693958"></circle><circle r="4.977310154522382" cx="629.4092061859724" cy="89.01940237208638" opacity="0.7562344087212729"></circle><circle r="4.737784309908147" cx="604.7434534014171" cy="185.74611070627475" opacity="0.4471512994680119"></circle><circle r="6.253712817982404" cx="353.1154825382757" cy="235.5962360227221" opacity="0.8323460032831642"></circle><circle r="5.486519528218248" cx="56.15718303483508" cy="737.7054572424647" opacity="0.9551289575751236"></circle><circle r="5.604152916732825" cx="616.1125248179692" cy="736.2200988531481" opacity="0.816087752435871"></circle><circle r="5.083667937059992" cx="526.4690968502886" cy="698.2518445232477" opacity="0.7988547753273689"></circle><circle r="4.907641177242907" cx="16.316163979085786" cy="146.21400588229918" opacity="0.9876970721157584"></circle><circle r="5.270710383097358" cx="648.7180996464781" cy="235.75576164079524" opacity="0.5373110140776511"></circle><circle r="4.875185482855972" cx="271.62959739973735" cy="88.91869478890465" opacity="0.9916212618902932"></circle><circle r="7.693839852576387" cx="47.76104552713365" cy="604.3611397011696" opacity="0.44278109508527275"></circle><circle r="8.389094243361923" cx="28.783633375182752" cy="243.87033920141496" opacity="0.8211320607548426"></circle><circle r="4.217089673349301" cx="637.1834458765222" cy="528.6264956751207" opacity="0.1317006742856583"></circle><circle r="5.500212402567495" cx="370.2726869376029" cy="55.61580823834555" opacity="0.6787630152938702"></circle><circle r="4.186764349604162" cx="180.6427329170521" cy="550.2473067681402" opacity="0.3370399161942743"></circle><circle r="5.639084549353617" cx="75.0278095417273" cy="143.61251441419563" opacity="0.4403591791529943"></circle><circle r="4.3643924645081675" cx="777.766941942988" cy="600.9069552037264" opacity="0.58297492350253"></circle><circle r="7.523158049390712" cx="316.08498442886076" cy="157.15156307862387" opacity="0.5076481625102877"></circle><circle r="4.338390225855202" cx="577.1196018455079" cy="138.8085612220221" opacity="0.24801518534454056"></circle><circle r="6.956523054920133" cx="253.5946040281257" cy="149.64038822323266" opacity="0.5996126863794934"></circle><circle r="4.949502164113596" cx="603.2736519925468" cy="761.6194994865784" opacity="0.36576960266611014"></circle><circle r="6.684630179379081" cx="30.45927489347082" cy="77.95704093731125" opacity="0.7244081984377041"></circle><circle r="4.761542687513562" cx="201.1453788574516" cy="629.8822290350153" opacity="0.6380907308540748"></circle><circle r="7.102511324269857" cx="179.86757840011302" cy="513.8752249832899" opacity="0.6334632497818128"></circle><circle r="5.567664133445586" cx="489.6843394268185" cy="270.03741876568" opacity="0.8041800152067051"></circle><circle r="7.924486910010509" cx="489.6756820463544" cy="741.2912664211536" opacity="0.8052567973473157"></circle><circle r="5.159057907500948" cx="434.7877368570946" cy="183.19667356709698" opacity="0.2192477806274707"></circle><circle r="5.516641219087761" cx="547.9320713201595" cy="597.2022763852486" opacity="0.6694708375298992"></circle><circle r="4.938838696232442" cx="103.56264833134657" cy="458.7147042099991" opacity="0.33631952995555514"></circle><circle r="3.8393927822068408" cx="663.681553819927" cy="165.7275194445937" opacity="0.6088732951057872"></circle><circle r="7.940354894763234" cx="771.0798892110414" cy="66.44010232460924" opacity="0.33736547187621735"></circle><circle r="5.483437704802119" cx="123.02695749965693" cy="14.56117740136875" opacity="0.14199680007356147"></circle><circle r="2.892903396377296" cx="11.050524000800836" cy="166.83799365790912" opacity="0.4292875212884857"></circle><circle r="4.343182671981083" cx="643.8404043431386" cy="706.2873703881353" opacity="0.83565723710963"></circle><circle r="4.518268076873981" cx="729.2137522698997" cy="400.2233928408275" opacity="0.508222742787974"></circle><circle r="7.480545340786696" cx="214.44613845200942" cy="365.7951437388869" opacity="0.8080924838426651"></circle><circle r="4.46124465566547" cx="787.897841002512" cy="773.6250331011956" opacity="0.6127048087393595"></circle><circle r="5.407086427716855" cx="334.91054125822706" cy="13.601708742057518" opacity="0.4896007743525701"></circle><circle r="5.244087192642131" cx="558.5685000305953" cy="160.3347110822289" opacity="0.16177189695605848"></circle><circle r="4.1468705824592265" cx="141.02200808713914" cy="490.31978008493456" opacity="0.2086422695970837"></circle><circle r="4.7059814596023175" cx="555.5495123790698" cy="776.8176586462166" opacity="0.18635762707551157"></circle><circle r="3.8710730080149496" cx="326.34226779976757" cy="116.09117245601728" opacity="0.2460228095747122"></circle><circle r="7.18099622629553" cx="450.8959312452117" cy="558.9210400625941" opacity="0.4553825468244632"></circle><circle r="4.822777125431408" cx="165.84047191823925" cy="107.58452855547421" opacity="0.11620165526427585"></circle><circle r="4.069268076497931" cx="265.71445397828603" cy="742.8598662940966" opacity="0.3318792113378074"></circle><circle r="6.736295299411096" cx="334.6254677755146" cy="508.5835931216766" opacity="0.7246433408076235"></circle><circle r="5.256373730147084" cx="172.19710636717824" cy="784.5922056271138" opacity="0.6820452678319977"></circle><circle r="2.558843385011194" cx="84.59491843355387" cy="519.1356175360797" opacity="0.9146844738817131"></circle><circle r="3.8875005635626056" cx="649.728796715097" cy="285.1060885273305" opacity="0.7811375952925179"></circle><circle r="6.153762252902349" cx="760.1181171833432" cy="574.2952445232762" opacity="0.5446123707137396"></circle><circle r="8.223635090183649" cx="710.4815484596246" cy="492.28117012063854" opacity="0.3346865376738573"></circle><circle r="5.323941405589232" cx="266.12627314469006" cy="593.8616378682823" opacity="0.7832130284293869"></circle><circle r="5.11568054304435" cx="519.6839129078883" cy="582.8375413368212" opacity="0.905432817165359"></circle><circle r="4.035520424070922" cx="655.1576648704211" cy="139.08221583019497" opacity="0.25097940613672026"></circle><circle r="4.9662020207623545" cx="124.8524064594155" cy="538.957833416299" opacity="0.5286854267398796"></circle><circle r="7.750318550130738" cx="411.54124343348514" cy="548.031582441176" opacity="0.6443784431091936"></circle><circle r="3.4927193988174587" cx="96.3354375684467" cy="486.8933011492085" opacity="0.7762109728335987"></circle><circle r="4.869365077947755" cx="456.9233004169189" cy="84.22724223430093" opacity="0.4157429448858232"></circle><circle r="4.405255021508413" cx="375.5436200657616" cy="424.71976193869693" opacity="0.6096964979085304"></circle><circle r="6.826505370617657" cx="669.1842260622652" cy="736.9574283000685" opacity="0.18145974961644384"></circle><circle r="6.007844709474586" cx="114.0814504224813" cy="561.5280493547001" opacity="0.61651775108756"></circle><circle r="3.515228399095715" cx="98.39821720775242" cy="617.2573626152976" opacity="0.8020806851263101"></circle><circle r="7.672324821386928" cx="146.04754774690377" cy="179.32058241550752" opacity="0.1313243136886107"></circle><circle r="6.69014604204723" cx="727.5360137394049" cy="633.0448593880616" opacity="0.3920575424606906"></circle><circle r="5.20828664316734" cx="264.2074946212523" cy="298.7073710410382" opacity="0.18133802998018456"></circle><circle r="5.666953813544588" cx="747.3032576547843" cy="519.5335577411437" opacity="0.9402368356339283"></circle><circle r="4.781793648590703" cx="183.92229186498517" cy="664.5803251250444" opacity="0.40866440046346164"></circle><circle r="5.529119279541794" cx="208.2725877198542" cy="443.4888695342081" opacity="0.7044350538818622"></circle><circle r="5.967271437391592" cx="716.5662354112503" cy="243.19731813103775" opacity="0.5221637733289606"></circle><circle r="5.683651036601946" cx="370.71983918692126" cy="121.0231211957467" opacity="0.17547575326690834"></circle><circle r="7.194290612682518" cx="354.7616557880804" cy="483.91456812227085" opacity="0.21294278781999715"></circle><circle r="5.521571314216052" cx="217.16070420183797" cy="506.86263076606383" opacity="0.8746183626434607"></circle><circle r="5.3684477730874764" cx="427.17057121496214" cy="441.0034515489674" opacity="0.2964770524845106"></circle><circle r="6.519400839248874" cx="336.59842067020236" cy="574.5844682475562" opacity="0.7697061539597962"></circle><circle r="6.110093876408742" cx="424.2915271724305" cy="273.12754037267604" opacity="0.2242230681963617"></circle><circle r="9.84537602937203" cx="324.01148672018365" cy="294.9010960687265" opacity="0.4425745120543926"></circle><circle r="5.823954543844151" cx="30.491928479019116" cy="476.0446571412383" opacity="0.520859156538013"></circle><circle r="6.2945406059841655" cx="533.7458127197593" cy="455.1768865787135" opacity="0.6649548241754999"></circle><circle r="4.933025209372659" cx="51.32536430233931" cy="696.7483193499409" opacity="0.8698697564855326"></circle><circle r="6.199989747624533" cx="165.0407954875528" cy="358.6339904451094" opacity="0.9830450818978077"></circle><circle r="5.551971027053559" cx="202.10819918833477" cy="55.39254091615511" opacity="0.7712049151620438"></circle><circle r="3.715929562317269" cx="239.579837749127" cy="399.8992067397042" opacity="0.7481725933682596"></circle><circle r="6.458925066172226" cx="737.2591163146903" cy="138.9037885997964" opacity="0.4833715566807564"></circle><circle r="7.400196643962196" cx="152.25230719901705" cy="463.8645793807971" opacity="0.952489035482553"></circle><circle r="3.743292339288947" cx="193.2936480750683" cy="112.54349429757526" opacity="0.24211214572182074"></circle><circle r="6.179526865738213" cx="393.555554828321" cy="288.80702051842616" opacity="0.21890540817497983"></circle><circle r="6.249526180931196" cx="479.0006263937449" cy="553.6189100585875" opacity="0.8778641492646656"></circle><circle r="6.10566380459548" cx="477.12253281111117" cy="418.65428224910306" opacity="0.13357031227636829"></circle><circle r="4.858155951603132" cx="177.6850333317724" cy="154.2234290298993" opacity="0.4207481105355845"></circle><circle r="5.844322038195135" cx="763.2935321980106" cy="451.75582022118425" opacity="0.9796835478285758"></circle><circle r="6.409629055812969" cx="259.4726278940479" cy="563.6595454164802" opacity="0.4226454551915031"></circle><circle r="3.7665824453102292" cx="556.3235525468405" cy="725.5042419714881" opacity="0.3548345255575276"></circle><circle r="4.372656115650279" cx="187.61482048388825" cy="709.1397050865913" opacity="0.6763938688566763"></circle><circle r="5.047140311311342" cx="676.902252753269" cy="300.29326399114194" opacity="0.7823664357817195"></circle><circle r="3.455276971305172" cx="169.33251434801608" cy="329.8696247855718" opacity="0.23350619538387946"></circle><circle r="6.913574310443845" cx="739.9566312775777" cy="472.6259740116488" opacity="0.14446151407815913"></circle><circle r="3.9644741063222124" cx="271.95939160699504" cy="497.14429093622516" opacity="0.29943955489637986"></circle><circle r="7.979476175471316" cx="494.2006830869552" cy="629.6594451762527" opacity="0.3742175126229128"></circle><circle r="7.819327708436765" cx="681.0346643776719" cy="618.0342534956213" opacity="0.1510726217301885"></circle><circle r="6.122048062623889" cx="510.0832057558493" cy="478.4673164264608" opacity="0.15068326871325838"></circle><circle r="4.236002712860885" cx="197.31891632144644" cy="241.2396535060017" opacity="0.6014719824177693"></circle><circle r="5.68588651850512" cx="781.2716473703057" cy="131.72342494826842" opacity="0.8872968690311068"></circle><circle r="3.1377763692802545" cx="386.49935882076625" cy="232.30312177117824" opacity="0.8175361072902616"></circle><circle r="4.84068407445503" cx="740.4419643438732" cy="169.11925271369356" opacity="0.17543320966633416"></circle><circle r="3.2416799536949026" cx="634.0990287346305" cy="582.1169489338481" opacity="0.27659497460937443"></circle><circle r="6.118948189077215" cx="205.05839883885287" cy="687.5790128009885" opacity="0.2317794549740959"></circle><circle r="3.5202072433115825" cx="788.4880819223619" cy="719.6202405472956" opacity="0.39000049303680207"></circle><circle r="4.796590242107312" cx="579.8912050299008" cy="606.7772076322435" opacity="0.13491618455418541"></circle><circle r="5.793765614234879" cx="331.95671368222287" cy="334.15857166443897" opacity="0.7048093714109875"></circle><circle r="4.36952267614249" cx="449.18767400503424" cy="456.5211097796886" opacity="0.410132563602272"></circle><circle r="4.295062950093699" cx="388.3154922322991" cy="784.9130026144109" opacity="0.9313350660929165"></circle><circle r="5.956159333381169" cx="779.4721309391286" cy="351.5484316155107" opacity="0.4464379346110503"></circle><circle r="8.677526240817484" cx="335.8055519824014" cy="719.9943835267925" opacity="0.2029658189743222"></circle><circle r="4.736416177545994" cx="11.524950799354464" cy="54.23152300828343" opacity="0.7267905993968873"></circle><circle r="3.6486844010697057" cx="507.2093069406573" cy="602.0877731601812" opacity="0.7557401979004703"></circle><circle r="5.290672258944984" cx="614.7628266789117" cy="788.8688629892565" opacity="0.32900631366984456"></circle><circle r="3.82379653784767" cx="196.33564677817625" cy="27.31526329161456" opacity="0.6196055639313252"></circle><circle r="4.771797164851601" cx="24.733637639156985" cy="445.7600934100458" opacity="0.159573269709084"></circle><circle r="3.689823232151904" cx="217.78401342942396" cy="715.0777628363194" opacity="0.49225207873031596"></circle><circle r="7.412168901298891" cx="53.96533357961805" cy="288.4781708210246" opacity="0.4391724000458288"></circle><circle r="6.670445878601351" cx="168.91739968182785" cy="66.81044978695098" opacity="0.9812302150466392"></circle><circle r="3.1830975269566757" cx="175.2610433233725" cy="403.70919052650913" opacity="0.8100550442017813"></circle><circle r="7.592545956911641" cx="565.1750678246922" cy="468.23155926730965" opacity="0.8458595120054071"></circle><circle r="6.769412115175777" cx="441.0911139020678" cy="785.3759468722282" opacity="0.2565330270624042"></circle><circle r="6.079122754281817" cx="427.7556841275062" cy="219.1724065507775" opacity="0.7576713652174536"></circle><circle r="6.783341325303955" cx="69.67604162965588" cy="331.29605230607825" opacity="0.6717366131673431"></circle><circle r="5.811262150362621" cx="701.473430996019" cy="97.34062577215897" opacity="0.3544324260890356"></circle><circle r="5.4396060330512235" cx="115.8765958343679" cy="54.91467188567399" opacity="0.32577632495539893"></circle><circle r="6.7408045103501095" cx="525.6962146590186" cy="522.2117276928722" opacity="0.430704479571864"></circle><circle r="4.7914669568347215" cx="297.3186590660216" cy="647.061447246082" opacity="0.15864083406753415"></circle><circle r="5.59019295921243" cx="738.9192816578312" cy="69.73430643001905" opacity="0.5109683534408705"></circle><circle r="5.0736018548650605" cx="326.54613031374817" cy="374.60772275895795" opacity="0.8790781130184256"></circle><circle r="3.9427396648019726" cx="383.13549649507604" cy="463.23550387707076" opacity="0.8652315132124088"></circle><circle r="4.010332542176169" cx="683.0144466702131" cy="143.56620469055292" opacity="0.4574466218052896"></circle><circle r="3.7894090802944116" cx="90.0952717918541" cy="786.042115310825" opacity="0.4905004730384659"></circle><circle r="4.386988118564737" cx="496.7248613618469" cy="433.1855996760792" opacity="0.4752204304292942"></circle><circle r="6.276195730300431" cx="782.2834992418499" cy="247.01714813262305" opacity="0.8843766617213599"></circle><circle r="5.312413350274001" cx="395.4580975327412" cy="144.29297243166425" opacity="0.9564759755011524"></circle><circle r="4.798233573764271" cx="35.6636206728447" cy="520.6674025765655" opacity="0.6494084002215386"></circle><circle r="3.178619648627422" cx="704.9754477189942" cy="725.2112697727721" opacity="0.15553474625742708"></circle><circle r="6.185073099534564" cx="78.98983089673295" cy="184.98022477374377" opacity="0.5703035048665308"></circle><circle r="7.98855641222847" cx="58.62151441513686" cy="646.8722815317374" opacity="0.2386202606932702"></circle><circle r="4.945401332849138" cx="692.8274088843574" cy="521.65838705637" opacity="0.7872319335474831"></circle><circle r="5.628394030621584" cx="80.21009198747933" cy="384.64358009977633" opacity="0.6373270582772962"></circle><circle r="4.7089950601402535" cx="193.43936079529118" cy="338.0019637730211" opacity="0.5235264557450705"></circle><circle r="3.3924055201283414" cx="169.29047425321008" cy="698.7417495279253" opacity="0.14341251876480546"></circle><circle r="4.089328502450958" cx="526.3759991751132" cy="787.4625076665433" opacity="0.10276129133993576"></circle><circle r="8.229419175074295" cx="723.0601519182645" cy="596.279943977899" opacity="0.885941802160795"></circle><circle r="5.0905282570651496" cx="76.45761752902222" cy="612.1121308225038" opacity="0.7248266900780983"></circle><circle r="5.490183995147447" cx="726.2814200914255" cy="190.50679399616806" opacity="0.25166059989129874"></circle><circle r="5.3580107133231705" cx="167.16010857938758" cy="18.125820771550863" opacity="0.2777135835796839"></circle><circle r="6.833546077299744" cx="90.18220003712848" cy="72.04880460512813" opacity="0.6836364763841828"></circle><circle r="7.104116149779722" cx="352.8183747324379" cy="450.0782855167785" opacity="0.47904049473232857"></circle><circle r="4.23138462602273" cx="713.8517764068494" cy="373.99786457910636" opacity="0.41471096214271064"></circle><circle r="5.871110785127263" cx="17.919009475373574" cy="303.09956493383066" opacity="0.3510731343942628"></circle><circle r="5.401814979991429" cx="554.8822766445027" cy="17.64729144141809" opacity="0.39822501287943657"></circle><circle r="7.150040160633303" cx="495.9745490179915" cy="685.5254649260625" opacity="0.8225326359261876"></circle><circle r="5.281961927922456" cx="676.93012819246" cy="12.240407365778918" opacity="0.8322449861017771"></circle><circle r="3.736978625680411" cx="355.67587044226786" cy="32.69716261476745" opacity="0.37320962765178767"></circle><circle r="4.5711458599771815" cx="730.7986004946886" cy="705.5145739733607" opacity="0.29833110412599717"></circle><circle r="6.676683836932191" cx="728.5725250549434" cy="548.4685856343658" opacity="0.5771190746209416"></circle><circle r="7.467950659654534" cx="145.265472744356" cy="221.9402268597888" opacity="0.9098034791638091"></circle><circle r="4.693657406495061" cx="298.11189430186715" cy="730.4228766087672" opacity="0.2756475706398209"></circle><circle r="4.771209237201083" cx="759.5485058944947" cy="703.2829268871985" opacity="0.20068924941792862"></circle><circle r="8.81260666443373" cx="474.35162665225624" cy="325.76255567869634" opacity="0.8776419545908922"></circle><circle r="3.5271810325680746" cx="57.10978261533941" cy="508.2591100717085" opacity="0.36316060971798436"></circle><circle r="8.60600365669311" cx="554.6576030406137" cy="105.94404164546522" opacity="0.7840402372974427"></circle><circle r="5.29295119096221" cx="590.0127321728016" cy="26.97075825024016" opacity="0.3112774584263537"></circle><circle r="2.9569467586552505" cx="439.34153925823136" cy="403.0121237021281" opacity="0.39233230766326666"></circle><circle r="5.932734593830884" cx="154.01681626723183" cy="659.5826715916072" opacity="0.60043069566638"></circle><circle r="5.556168429181845" cx="616.9882871653456" cy="689.332068759537" opacity="0.42222974147945147"></circle><circle r="7.865658382475229" cx="668.3308484961585" cy="565.8556143821901" opacity="0.6163486116766561"></circle><circle r="5.427060092539999" cx="183.19215961472656" cy="439.02371599164456" opacity="0.9458774640407119"></circle><circle r="3.2057645151536622" cx="37.44622905090615" cy="140.43919630175586" opacity="0.5277171848894867"></circle><circle r="6.0822992205506505" cx="206.35082293337499" cy="170.1519171152396" opacity="0.9125343180100755"></circle><circle r="4.2584925680913726" cx="443.10445508665987" cy="248.98902961175412" opacity="0.3845091918977248"></circle><circle r="6.270863652836876" cx="285.95178854495305" cy="238.36377686129333" opacity="0.1426746024813714"></circle><circle r="6.868053535549368" cx="569.7326355094089" cy="395.7606077728189" opacity="0.938733135798241"></circle><circle r="5.124177776286047" cx="345.1761965695709" cy="95.37632353430028" opacity="0.9044263977166592"></circle><circle r="4.448608365938384" cx="326.73060120056755" cy="547.8435884845859" opacity="0.11305561113473989"></circle><circle r="5.21233836432229" cx="571.2541145198026" cy="571.5440614516806" opacity="0.40192366028726223"></circle><circle r="9.820295311716421" cx="306.6985898957114" cy="685.0347581668676" opacity="0.6613202850287387"></circle><circle r="6.5313315669555925" cx="381.00919903410664" cy="719.1767804761798" opacity="0.3749372465529506"></circle><circle r="4.852497104918329" cx="567.9114255073652" cy="63.24307499780486" opacity="0.5812524253564442"></circle><circle r="7.172303709422752" cx="245.46840391170642" cy="719.1528416887201" opacity="0.2848201832376498"></circle><circle r="3.369280033843282" cx="554.4890958474213" cy="550.394651219113" opacity="0.2138391955341305"></circle><circle r="4.302566091682607" cx="170.4214868676295" cy="633.92283419205" opacity="0.715518923073812"></circle><circle r="5.880209504196871" cx="407.8476275054836" cy="628.360485002724" opacity="0.6061639485447232"></circle><circle r="5.111734306777177" cx="119.48076074522471" cy="596.1878939670964" opacity="0.4601250348983217"></circle><circle r="3.9346363273599114" cx="409.0872528792236" cy="470.50146836588095" opacity="0.7423431005827861"></circle><circle r="4.718234188910584" cx="310.0541744525336" cy="427.858089552662" opacity="0.6336429011981332"></circle><circle r="8.626362098989837" cx="750.1284529795006" cy="664.3541561457941" opacity="0.438723560327387"></circle><circle r="8.103169864959213" cx="783.2381811652863" cy="544.343013359413" opacity="0.3117548419383371"></circle><circle r="7.726345143240573" cx="374.4199941673487" cy="339.6736844583401" opacity="0.133043402531247"></circle><circle r="7.699599851183673" cx="102.42145198754766" cy="108.31145961487873" opacity="0.7482773975603564"></circle><circle r="5.026363388578451" cx="422.0837666047648" cy="142.48110687267757" opacity="0.7251337991913359"></circle><circle r="2.5636433028995564" cx="717.8740368323109" cy="81.50825427188842" opacity="0.4594146667771166"></circle><circle r="4.898217976490579" cx="560.6660903023526" cy="663.0600370363009" opacity="0.33169322272303314"></circle><circle r="8.07664010345255" cx="65.00474005282308" cy="463.2634434858882" opacity="0.7789663352445938"></circle><circle r="6.930095826309893" cx="151.49815755576725" cy="568.3755338134995" opacity="0.17936107391992667"></circle><circle r="4.595104283501733" cx="502.27304736782565" cy="352.32638904690145" opacity="0.17286232936646428"></circle><circle r="5.728522507393053" cx="339.6013614948368" cy="180.09056449779794" opacity="0.5468648384395625"></circle><circle r="4.807736737667469" cx="265.76290169295424" cy="774.8216627835171" opacity="0.8731006055124726"></circle><circle r="5.700113917392955" cx="80.17436587153132" cy="428.3076000078893" opacity="0.3136885380146288"></circle><circle r="4.569791289064859" cx="400.67015985887434" cy="203.76894840968313" opacity="0.13844092639901187"></circle><circle r="4.045634091509506" cx="766.8118688888593" cy="740.423300085255" opacity="0.9451247396771744"></circle><circle r="7.322674595527803" cx="15.519486908324227" cy="107.69812704529333" opacity="0.3695643316661529"></circle><circle r="3.010361914772332" cx="629.4964902554143" cy="557.8550170745425" opacity="0.17674309787743203"></circle><circle r="5.227913658919423" cx="147.19133999636253" cy="322.00425157205626" opacity="0.27878735493551465"></circle><circle r="6.997870197460823" cx="237.2977039474848" cy="113.44511006713327" opacity="0.5575481887388964"></circle><circle r="7.064275145533349" cx="589.5670082046405" cy="287.0085811793019" opacity="0.34587788462865193"></circle><circle r="6.056723589137958" cx="436.63468938854635" cy="302.2857159253394" opacity="0.7835529908792446"></circle><circle r="7.571084346101458" cx="590.7800190941858" cy="106.34857758839784" opacity="0.3075460881643156"></circle><circle r="7.708539996574421" cx="305.29874094127865" cy="518.1460013370558" opacity="0.9578426025613285"></circle><circle r="3.378860687166632" cx="134.3166522923014" cy="670.2911002080132" opacity="0.7563828496431607"></circle><circle r="3.236687321948103" cx="666.3644439425983" cy="34.542174707545485" opacity="0.8742081610873302"></circle><circle r="6.555676458995308" cx="13.581443423936648" cy="761.4437825490089" opacity="0.7755549450646895"></circle><circle r="9.387109864908448" cx="466.74892163833266" cy="597.6663888704411" opacity="0.7962726867678553"></circle><circle r="4.153662783846753" cx="310.09198830544784" cy="80.81010747264558" opacity="0.7728998595504387"></circle><circle r="8.396445829644486" cx="484.66364298295014" cy="138.40234715959392" opacity="0.6385951016795327"></circle><circle r="4.880630678710185" cx="480.57049325129867" cy="456.8550155150467" opacity="0.5794946301407894"></circle><circle r="7.5437631687026006" cx="775.0321179756747" cy="311.3648161811991" opacity="0.6165856896756022"></circle><circle r="4.891344482274077" cx="88.76350596517034" cy="755.2164408000668" opacity="0.29396253110330717"></circle><circle r="5.231492010540684" cx="178.11633762804897" cy="488.0606536616896" opacity="0.6742770445934474"></circle><circle r="3.8138095588747203" cx="223.90461848087162" cy="578.7620947485549" opacity="0.639188150074963"></circle><circle r="3.5107249777768854" cx="15.034868449971835" cy="492.37555832668426" opacity="0.8877826980758506"></circle><circle r="8.669504042719574" cx="494.81256746545205" cy="514.4104298589983" opacity="0.31803468945707725"></circle><circle r="5.556710345136581" cx="450.6294837544873" cy="524.280432475146" opacity="0.16981532144496714"></circle><circle r="5.3857937929088795" cx="655.4607925404059" cy="757.9735520226012" opacity="0.8211636200000916"></circle><circle r="7.314961004850122" cx="20.63374751739886" cy="656.7232423950646" opacity="0.7525522886730414"></circle><circle r="5.518780812578612" cx="109.58828144230209" cy="356.3259568144911" opacity="0.33965573426772633"></circle><circle r="4.514917243846081" cx="288.98797327929657" cy="443.9779512003752" opacity="0.3298583544022959"></circle><circle r="5.690098896619485" cx="141.88769744191416" cy="634.1305953528994" opacity="0.6927803450697106"></circle><circle r="5.015596126768198" cx="779.2316438383094" cy="635.0385138949536" opacity="0.9863326760798583"></circle><circle r="6.32046524910991" cx="300.3258281825239" cy="397.5466039504045" opacity="0.7785081756008135"></circle><circle r="4.923273387204635" cx="30.36460158620653" cy="410.7926920798581" opacity="0.16307681658050993"></circle><circle r="6.227898150579005" cx="778.4529808656971" cy="277.10494980352763" opacity="0.18904154296055545"></circle><circle r="6.166550562817001" cx="691.0528651925982" cy="260.52403858994865" opacity="0.179553471705246"></circle><circle r="4.891141161437792" cx="286.8869640703041" cy="472.81244066775844" opacity="0.850800805643885"></circle><circle r="5.532230333014182" cx="258.79136193645456" cy="39.34765358592283" opacity="0.252860938868452"></circle><circle r="6.806431354620349" cx="596.4638928421398" cy="661.7906706226426" opacity="0.5150343850749098"></circle><circle r="7.077311916262889" cx="326.9074419713466" cy="237.0124422282578" opacity="0.2605132992930199"></circle><circle r="5.29005525060006" cx="192.39411413774192" cy="413.5554209601023" opacity="0.7495873922201306"></circle><circle r="3.4231170737375507" cx="677.4324321129754" cy="182.8119175492663" opacity="0.5252381688631025"></circle><circle r="7.571346466409801" cx="675.3532001433293" cy="383.28773189766247" opacity="0.9641145851489219"></circle><circle r="4.182536684157683" cx="326.4703320461911" cy="46.00474873024427" opacity="0.11249397452024061"></circle><circle r="3.035577555419484" cx="668.8262052246115" cy="264.44617000750134" opacity="0.21478717203477243"></circle><circle r="9.38949591335157" cx="302.346508867574" cy="203.6900292200967" opacity="0.24046834994018196"></circle><circle r="8.564005217988772" cx="111.54354898115179" cy="404.15509083986154" opacity="0.5932839444822753"></circle><circle r="7.368760636902769" cx="178.36396887395446" cy="260.3463589429725" opacity="0.3346386328152242"></circle><circle r="5.685955080896303" cx="206.04333380056033" cy="545.4508595534198" opacity="0.6805547176332571"></circle><circle r="5.1874058156445635" cx="9.817448873986908" cy="202.7066753244285" opacity="0.13884684348713014"></circle><circle r="6.871975567443901" cx="267.2484394455987" cy="664.4533612813563" opacity="0.8276702179436283"></circle><circle r="4.214517333372877" cx="553.0074725461569" cy="362.38105331093857" opacity="0.5166656507222059"></circle><circle r="7.063906404217738" cx="784.655806090123" cy="675.2139246667906" opacity="0.9042367519423731"></circle><circle r="7.226150171840937" cx="784.2371421349068" cy="99.02264441729321" opacity="0.4523350171363174"></circle><circle r="7.629244216926766" cx="474.35497021271374" cy="171.05166598688086" opacity="0.6887910345176946"></circle><circle r="5.577555231473125" cx="89.75681138826509" cy="31.1106070217586" opacity="0.4011892939126177"></circle><circle r="2.8554570985442993" cx="453.53670346365993" cy="421.6963731508088" opacity="0.3401338601760928"></circle><circle r="6.494776140430908" cx="372.31233628204683" cy="563.5081286041471" opacity="0.4061207746361931"></circle><circle r="6.803607937119179" cx="273.0341072289853" cy="179.54930563850834" opacity="0.7092564190940598"></circle><circle r="5.24584088567115" cx="258.14423904339253" cy="375.9221276225165" opacity="0.3022994510982372"></circle><circle r="3.7016518111309145" cx="530.7979992533319" cy="557.6221438349309" opacity="0.9019360607441199"></circle><circle r="6.327449312625521" cx="281.77625750673536" cy="618.7717664685968" opacity="0.562116190067883"></circle><circle r="7.878252485469573" cx="228.92904889110807" cy="322.70704150131235" opacity="0.40048347207504864"></circle><circle r="4.7771636856361175" cx="568.9949917746147" cy="632.9913872929459" opacity="0.1735173000857072"></circle><circle r="3.3573095348215474" cx="235.24270500000523" cy="674.013849798749" opacity="0.5505328188219477"></circle><circle r="3.90443110237988" cx="176.6505915418483" cy="597.4317558761488" opacity="0.222644580779097"></circle><circle r="4.662861826198336" cx="671.7309214872699" cy="709.4384137858822" opacity="0.10771833660570278"></circle><circle r="4.9178378089880965" cx="707.0429175549268" cy="212.43874755794346" opacity="0.910368457040709"></circle><circle r="6.263809485664192" cx="201.08825590698152" cy="294.4273756188855" opacity="0.7423791363867891"></circle><circle r="6.099460471837021" cx="708.4104632614572" cy="450.87990578757905" opacity="0.45547637171490163"></circle><circle r="6.298708911140988" cx="104.33964902793021" cy="142.8413710532451" opacity="0.16427001528618965"></circle><circle r="5.169032454189738" cx="640.0293230661973" cy="468.65575261140685" opacity="0.976175558104347"></circle><circle r="4.885195691061028" cx="761.9569195204541" cy="152.88899960001623" opacity="0.8582186484196281"></circle><circle r="8.182763716842665" cx="266.81333676247425" cy="418.79940775538523" opacity="0.6888548911574254"></circle><circle r="3.421021734621631" cx="209.93783524431439" cy="131.00809690624817" opacity="0.5066857943178004"></circle><circle r="7.951608234116394" cx="783.4699013681031" cy="214.880911193473" opacity="0.3430257831221263"></circle><circle r="5.13697881885755" cx="50.77869162578956" cy="172.0799662499312" opacity="0.2737220190454985"></circle><circle r="7.738259840585046" cx="299.04112335775625" cy="273.5217386618838" opacity="0.26741384071528074"></circle><circle r="4.020035007098042" cx="153.19804476598068" cy="132.36887554063364" opacity="0.8471901852502576"></circle><circle r="3.6610036280164397" cx="380.92382600149114" cy="183.61862723841978" opacity="0.18850049814257677"></circle><circle r="5.3127123963695695" cx="358.6553969877216" cy="597.7519485358139" opacity="0.7711574774150002"></circle><circle r="7.639176112073953" cx="784.0351988399362" cy="423.8518647463221" opacity="0.5942259149713516"></circle><circle r="5.368641462619417" cx="158.91005411596683" cy="748.1126245099947" opacity="0.9699626424611513"></circle><circle r="7.5008663143833285" cx="634.3221189989775" cy="165.5525811842523" opacity="0.6015121104191569"></circle><circle r="4.940152747513973" cx="153.3141628073048" cy="506.14497206569166" opacity="0.18728532888243887"></circle><circle r="5.005407169164757" cx="10.93630968028377" cy="521.9522421423782" opacity="0.3450711242336476"></circle><circle r="4.220018864070262" cx="497.48484176867106" cy="13.948678243421332" opacity="0.9586722305985547"></circle><circle r="7.827465171378693" cx="17.11030236218912" cy="605.3373349324906" opacity="0.5845917629349368"></circle><circle r="7.1730980395757875" cx="761.5416582485451" cy="190.59695462719824" opacity="0.41835984921834"></circle><circle r="6.859519615225782" cx="62.32824959468392" cy="93.01054373468067" opacity="0.5017861939214826"></circle><circle r="4.548697741391739" cx="176.40652745330945" cy="381.814868977813" opacity="0.3630423602436321"></circle><circle r="5.002553807634081" cx="644.3988924189176" cy="115.82339124792554" opacity="0.1799868786413058"></circle><circle r="4.141700816497613" cx="109.2750914351132" cy="514.5037410131276" opacity="0.580213834731689"></circle><circle r="4.694713205066826" cx="699.1597241914862" cy="565.1001923676777" opacity="0.565641197433074"></circle><circle r="6.921339519177392" cx="369.41960942322044" cy="629.4965967962718" opacity="0.8586490298116354"></circle><circle r="4.393859468609807" cx="665.8305670028496" cy="495.1117186487067" opacity="0.9311336017331329"></circle><circle r="4.2763439712043985" cx="142.27078366153648" cy="387.4151315894667" opacity="0.8945701959101683"></circle><circle r="3.9287781842427045" cx="606.4362009465972" cy="374.8244069474162" opacity="0.5733821494650105"></circle><circle r="5.709602287579403" cx="380.11978547884564" cy="14.785428373748369" opacity="0.726472734609259"></circle><circle r="6.792070182965871" cx="290.06756501105974" cy="52.89756826877873" opacity="0.37528785689934463"></circle><circle r="8.93134708076815" cx="16.702808934535607" cy="373.32128688404345" opacity="0.2358923827231773"></circle><circle r="5.009809178853271" cx="706.2524058998358" cy="284.0008051251055" opacity="0.45226958144200424"></circle><circle r="7.457845965381682" cx="122.1166401704408" cy="303.16909919992855" opacity="0.35575301284080874"></circle><circle r="5.951023526768986" cx="221.3360572060999" cy="476.85725923366397" opacity="0.30529890636240076"></circle><circle r="4.367664456513056" cx="617.9825022110673" cy="234.7353582544745" opacity="0.7755987051411131"></circle><circle r="6.378163930175082" cx="638.1840481292086" cy="654.4486526453574" opacity="0.5369175327721973"></circle><circle r="5.030112746032529" cx="375.15312683530345" cy="261.88035995739426" opacity="0.14503458239811468"></circle><circle r="4.528472435127104" cx="404.68461750995374" cy="249.6807950364506" opacity="0.9755726087217649"></circle><circle r="5.438181696048747" cx="609.4465045750744" cy="460.34910347601095" opacity="0.7440490278074926"></circle><circle r="2.577096183823192" cx="690.6919717506757" cy="167.82841906674935" opacity="0.1986572570294856"></circle><circle r="7.83552500251823" cx="485.1587815110812" cy="380.8637785032128" opacity="0.4033205050718037"></circle><circle r="3.6937120739321467" cx="457.1429373887126" cy="355.70608156793725" opacity="0.24779543623038996"></circle><circle r="5.350942354267678" cx="300.2518140971479" cy="114.2701205310796" opacity="0.2338047031033301"></circle><circle r="5.266763825616577" cx="363.8218661766987" cy="209.0348856654412" opacity="0.8107014131194755"></circle><circle r="4.733687282431309" cx="602.34884801556" cy="588.2432307217283" opacity="0.7084359232879619"></circle><circle r="3.271638054602515" cx="226.95494048085908" cy="154.87914336272527" opacity="0.5662448318279857"></circle><circle r="4.314093335255242" cx="347.634318605074" cy="134.5012708087467" opacity="0.24381851496867385"></circle><circle r="7.569786216666314" cx="515.0102081488308" cy="46.096935002875945" opacity="0.533409713041567"></circle><circle r="4.7301683723284755" cx="225.46590838142606" cy="250.22858222107462" opacity="0.3250413605166198"></circle><circle r="7.04256755526716" cx="585.7470056993822" cy="251.73971961290016" opacity="0.4130034692257415"></circle><circle r="5.084307807021463" cx="619.8317600960389" cy="123.8582352347441" opacity="0.524725457311042"></circle><circle r="5.182043260234378" cx="218.66172507948684" cy="655.394584989022" opacity="0.2769079822998718"></circle><circle r="6.987671376624088" cx="361.2549180607777" cy="759.0719343575173" opacity="0.4562133902905059"></circle><circle r="6.055487499350058" cx="206.08738214300365" cy="85.42849230986266" opacity="0.1731570960857755"></circle><circle r="7.964997875142371" cx="607.9473568071804" cy="332.20386403737103" opacity="0.8170406245844881"></circle><circle r="5.189026433127654" cx="711.9281196560531" cy="670.6913998744837" opacity="0.19205101866911933"></circle><circle r="3.5123907686137192" cx="694.4820344402573" cy="71.07560409389312" opacity="0.3424612609009875"></circle><circle r="4.521632984424862" cx="343.11066374175215" cy="70.00095174621474" opacity="0.5105352273340136"></circle><circle r="6.45136950306754" cx="601.9397516983756" cy="78.40351474613003" opacity="0.9831874726479766"></circle><circle r="4.474857174502981" cx="304.2726974982412" cy="17.266041715291294" opacity="0.13326584536889824"></circle><circle r="4.822769762107168" cx="378.0169687486179" cy="88.95468045209492" opacity="0.4972439744347691"></circle><circle r="8.611101665798369" cx="155.94397098274848" cy="289.6132095636226" opacity="0.9800498018976851"></circle><circle r="4.430573655147623" cx="233.34244449722132" cy="438.71200661213953" opacity="0.29400358100365054"></circle><circle r="5.935821621614398" cx="652.3612288889568" cy="602.9380197533941" opacity="0.69214714159413"></circle><circle r="7.217854989560633" cx="688.2532657485266" cy="779.9931382529741" opacity="0.9801278318817572"></circle><circle r="4.480677361402751" cx="203.48774246324336" cy="594.0547856924244" opacity="0.5435153968271993"></circle><circle r="7.164792498467212" cx="470.7522002925689" cy="659.116265623748" opacity="0.8273724165718359"></circle><circle r="4.5056415417970035" cx="54.78948151743236" cy="367.00484218622705" opacity="0.6080614975842068"></circle><circle r="6.201854870485647" cx="736.6956423744471" cy="747.8050782252967" opacity="0.9117003717251718"></circle><circle r="6.132351594466859" cx="272.99292695619357" cy="703.3166950127138" opacity="0.5836580002586095"></circle><circle r="3.2330569108206157" cx="123.13647011263677" cy="478.0465794729704" opacity="0.20521684369426185"></circle><circle r="7.910495919676127" cx="694.5463715409383" cy="339.1580091251699" opacity="0.9909660618108757"></circle><circle r="5.356930449328546" cx="656.1432952276838" cy="189.34182422817568" opacity="0.9399960607149797"></circle><circle r="7.5198212371579505" cx="659.5720376911773" cy="80.82874044009974" opacity="0.46874329282447147"></circle><circle r="3.1919051301338075" cx="441.300956103236" cy="336.8154622877594" opacity="0.5522933585774681"></circle><circle r="6.229846033978668" cx="17.200021682175286" cy="560.1546446249755" opacity="0.5509532225644622"></circle><circle r="7.008247852454944" cx="727.0038542826021" cy="311.5811975421934" opacity="0.9271420102351199"></circle><circle r="5.353864781966134" cx="133.21346949084213" cy="720.842836491646" opacity="0.80695559504942"></circle><circle r="6.628223966023531" cx="35.009913645579005" cy="39.0883716741157" opacity="0.2292699727989078"></circle><circle r="8.024602686730915" cx="89.3521648799546" cy="260.6059433449393" opacity="0.7459490835816192"></circle><circle r="8.523999644758788" cx="94.43284918464076" cy="717.8007203156205" opacity="0.6666506344467004"></circle><circle r="6.007815540517614" cx="520.262641237603" cy="199.83559084286097" opacity="0.40545875829202127"></circle><circle r="6.666470549150883" cx="537.2908317105922" cy="69.04185102919347" opacity="0.30720314272000177"></circle><circle r="3.2566328934462554" cx="607.8282275296857" cy="11.641326321136573" opacity="0.40037228473345665"></circle><circle r="6.8277981067313105" cx="510.25647683731495" cy="306.3328360251584" opacity="0.128618116892906"></circle><circle r="7.770363898708818" cx="365.93005231871115" cy="383.7145881512985" opacity="0.6732808005667257"></circle><circle r="4.016563547682437" cx="590.2087342147307" cy="52.128117487740134" opacity="0.6291399656052842"></circle><circle r="3.0563934422022605" cx="527.6708998137079" cy="760.833216205248" opacity="0.19520299012249012"></circle><circle r="5.655624531626972" cx="397.8652221718877" cy="590.1304963656437" opacity="0.7335652853377381"></circle><circle r="5.218442564352853" cx="293.52038732141324" cy="563.3015561644695" opacity="0.8612466880828129"></circle><circle r="3.424716255057973" cx="149.3491462561622" cy="691.780877962028" opacity="0.5202761352872213"></circle><circle r="5.061180919798553" cx="154.6482916064146" cy="425.51868652193326" opacity="0.9524961417266032"></circle><circle r="4.935951251747347" cx="468.71437417475784" cy="488.85446231521934" opacity="0.5929682907755544"></circle><circle r="4.92808315625051" cx="582.2995998747618" cy="767.8880367467215" opacity="0.5528662277596718"></circle><circle r="4.749076165046959" cx="741.4452392913138" cy="429.0383219997474" opacity="0.19459715499132102"></circle><circle r="4.972034602469182" cx="399.80161546160343" cy="311.33321731412155" opacity="0.3076061262146834"></circle><circle r="5.1132043305728025" cx="41.593419513186895" cy="780.7149469067704" opacity="0.31892893655088034"></circle><circle r="3.491081850778709" cx="788.1206213124312" cy="461.8556199227018" opacity="0.9128533080138823"></circle><circle r="4.213329643875858" cx="580.2225778215545" cy="499.70962887435957" opacity="0.19267151811319377"></circle><circle r="5.284217412532197" cx="716.2230480355379" cy="45.227229379957436" opacity="0.3018000687088878"></circle><circle r="4.143307458439922" cx="234.74378708015612" cy="553.8663047207554" opacity="0.37145033426796237"></circle><circle r="4.5620557297968976" cx="787.799327098206" cy="182.0877367419915" opacity="0.3643904855723229"></circle><circle r="6.167918184338552" cx="759.2514874058261" cy="781.8704466140939" opacity="0.6865679433106004"></circle><circle r="4.814443313748089" cx="106.7629105016799" cy="215.57300834216508" opacity="0.5420560496049611"></circle><circle r="4.681055041946875" cx="570.5587164007966" cy="742.5627839126693" opacity="0.9415446279808165"></circle><circle r="4.948529245101428" cx="407.19558323406653" cy="392.595556478797" opacity="0.8484375896485966"></circle><circle r="6.65437307747764" cx="428.06063057764453" cy="54.243508231995875" opacity="0.5164539744009795"></circle><circle r="6.998815010356391" cx="657.2407971132172" cy="338.11467042580784" opacity="0.8911057731128468"></circle><circle r="3.169848487375995" cx="578.5817655453903" cy="791.1086611638873" opacity="0.9301645310626897"></circle><circle r="4.66025399265264" cx="198.2775085769704" cy="746.9443330233714" opacity="0.3938974392689545"></circle><circle r="3.993077761277505" cx="124.00240328282152" cy="752.4464925165738" opacity="0.49366041913646075"></circle><circle r="4.524733379423252" cx="241.2950825466026" cy="12.185931002412053" opacity="0.877482767136503"></circle><circle r="3.9897495497845745" cx="405.59276747681474" cy="424.7578555561425" opacity="0.45231046692120747"></circle><circle r="4.148122617650188" cx="248.75174121097936" cy="691.4696254347487" opacity="0.711804506166646"></circle><circle r="6.350108382813392" cx="13.645082351529632" cy="270.55457172893597" opacity="0.3464589860023186"></circle><circle r="3.90121781645536" cx="709.2758111865232" cy="165.63442110216906" opacity="0.253837784722314"></circle><circle r="3.3356892711815553" cx="182.11315067422285" cy="729.1750617649473" opacity="0.820502648649589"></circle><circle r="4.554070200632183" cx="234.3811238740992" cy="784.9584847106278" opacity="0.8707794735805388"></circle><circle r="8.370131277630042" cx="231.08141529209664" cy="748.7582249467991" opacity="0.19058214188032366"></circle><circle r="5.736441681409021" cx="338.880787191934" cy="419.5219251852678" opacity="0.43210582126304287"></circle><circle r="8.258117561816578" cx="317.20680935586904" cy="607.7409878951157" opacity="0.5314459861967717"></circle><circle r="7.234763523113202" cx="268.1948937284031" cy="120.3879805115529" opacity="0.47687450457305336"></circle><circle r="2.8139268742303583" cx="129.39126201904156" cy="510.49228279286086" opacity="0.6280284774292091"></circle><circle r="5.156774807515066" cx="520.275711793333" cy="159.33503329940285" opacity="0.7654593536690788"></circle><circle r="3.828922241364476" cx="591.6771411207592" cy="441.4876438316661" opacity="0.1391009606170123"></circle><circle r="5.653904872167602" cx="469.6826968756737" cy="230.0117847895169" opacity="0.8362636765083157"></circle><circle r="8.259958764139155" cx="419.11468441899467" cy="704.107865729379" opacity="0.2953968619350147"></circle><circle r="9.58403972056071" cx="777.8181390427244" cy="496.3796748365436" opacity="0.22518544147413044"></circle><circle r="2.984331982365977" cx="84.18920234766745" cy="538.7700787959647" opacity="0.9700549566380949"></circle><circle r="4.847268031532142" cx="253.1684188342312" cy="463.0080849075459" opacity="0.4459167781713751"></circle><circle r="5.339748270057366" cx="702.9816879453764" cy="749.4457789649842" opacity="0.2979098577704663"></circle><circle r="8.174340158402275" cx="433.49338195879153" cy="666.8061549099959" opacity="0.6938809243470687"></circle><circle r="5.929919449395387" cx="596.2047285587321" cy="716.8717095373215" opacity="0.41481245980082315"></circle><circle r="4.50356955519617" cx="636.7076690514207" cy="499.1352400878261" opacity="0.7565593127264107"></circle><circle r="6.322302126956262" cx="553.2532582708471" cy="426.44945975295735" opacity="0.953032813992192"></circle></g></svg>